<?xml version="1.0" encoding="iso-8859-1"?>
<!-- Uploaded to: SVG Repo, www.svgrepo.com, Generator: SVG Repo Mixer Tools -->
<svg fill="#000000" height="800px" width="800px" version="1.1" id="Layer_1" xmlns="http://www.w3.org/2000/svg" xmlns:xlink="http://www.w3.org/1999/xlink" 
	 viewBox="0 0 512 512" xml:space="preserve">
<g>
	<g>
		<path d="M412.12,193.13c0.905-6.818,1.418-13.759,1.418-20.822c0-86.865-70.673-157.538-157.538-157.538
			c-86.865,0-157.538,70.673-157.538,157.538c0,7.063,0.514,14.004,1.419,20.822C41.461,216.196,0,273.176,0,339.692
			c0,86.865,70.673,157.538,157.538,157.538c37.234,0,71.469-13.013,98.462-34.691c26.994,21.678,61.228,34.691,98.462,34.691
			c86.865,0,157.538-70.673,157.538-157.538C512,273.176,470.538,216.196,412.12,193.13z M256,34.462
			c76.01,0,137.846,61.837,137.846,137.846c0,4.948-0.274,9.832-0.786,14.647c-12.357-3.125-25.283-4.8-38.598-4.8
			c-37.233,0-71.468,13.013-98.462,34.691c-26.993-21.678-61.227-34.691-98.462-34.691c-13.314,0-26.24,1.676-38.599,4.8
			c-0.511-4.815-0.786-9.698-0.786-14.647C118.154,96.298,179.99,34.462,256,34.462z M256,243.351
			c16.7,17.064,29.028,38.42,35.113,62.256c-11.216,2.957-22.981,4.547-35.113,4.547c-12.131,0-23.897-1.59-35.112-4.547
			C226.974,281.771,239.3,260.415,256,243.351z M202.218,299.224c-39.166-16.66-69.096-50.939-79.791-92.831
			c11.215-2.957,22.981-4.547,35.112-4.547c31.474,0,60.497,10.625,83.727,28.445C222.877,249.311,209.217,272.916,202.218,299.224z
			 M270.736,230.291c23.23-17.82,52.254-28.445,83.726-28.445c12.132,0,23.897,1.59,35.113,4.547
			c-10.696,41.892-40.625,76.171-79.791,92.831C302.784,272.916,289.122,249.311,270.736,230.291z M157.538,477.538
			c-76.01,0-137.846-61.837-137.846-137.846c0-56.939,34.702-105.919,84.064-126.916c12.91,48.521,48.453,87.879,94.586,106.094
			c-0.905,6.819-1.419,13.76-1.419,20.822c0,42.469,16.923,81.04,44.342,109.4C218.036,466.913,189.012,477.538,157.538,477.538z
			 M216.615,339.692c0-4.948,0.275-9.832,0.786-14.647c12.358,3.124,25.285,4.8,38.599,4.8c13.315,0,26.241-1.677,38.598-4.8
			c0.512,4.815,0.786,9.698,0.786,14.647c0,37.466-15.043,71.47-39.385,96.341C231.66,411.162,216.615,377.159,216.615,339.692z
			 M354.462,477.538c-31.472,0-60.496-10.625-83.726-28.446c27.418-28.361,44.341-66.932,44.341-109.4
			c0-7.062-0.513-14.003-1.418-20.822c46.133-18.215,81.677-57.573,94.587-106.094c49.362,20.996,84.063,69.977,84.063,126.916
			C492.308,415.702,430.471,477.538,354.462,477.538z"/>
	</g>
</g>
</svg>